<svg class="icon"
	 viewBox="0 0 1024 1024"
	 version="1.1"
	 xmlns="http://www.w3.org/2000/svg"
	 width="36"
	 height="36">
	<defs><style type="text/css"></style></defs>
	<path d="M545.518933 797.4144c-37.316267 0-71.6288-6.263467-102.929066-18.781867a218.786133 218.786133 0 0 1-81.0752-55.970133c-22.749867-24.7808-40.379733-55.697067-52.898134-92.765867-12.526933-37.051733-18.781867-79.598933-18.781866-127.6416 0-47.786667 6.0672-89.437867 18.210133-124.970666 12.1344-35.515733 29.832533-66.440533 53.0944-92.765867 22.741333-25.5488 49.698133-45.038933 80.887467-58.461867 31.172267-13.4144 66.056533-20.1216 104.6528-20.1216 19.165867 0 37.12 1.408 53.8624 4.215467 16.733867 2.816 32.256 6.391467 46.574933 10.734933a347.477333 347.477333 0 0 1 37.76 14.378667 504.994133 504.994133 0 0 1 38.144 18.978133V345.856h-6.135467A658.730667 658.730667 0 0 0 691.2 323.626667c-10.487467-8.686933-23.261867-17.245867-38.331733-25.685334a247.9616 247.9616 0 0 0-47.530667-19.549866c-17.1264-5.111467-36.932267-7.662933-59.4176-7.662934-24.285867 0-47.2832 4.983467-69.000533 14.9504-21.725867 9.966933-40.763733 24.669867-57.1136 44.0832-16.1024 19.421867-28.6208 43.835733-37.563734 73.216-8.951467 29.3888-13.4144 62.481067-13.4144 99.285334 0 39.099733 4.727467 72.7808 14.1824 101.009066 9.4464 28.2368 22.357333 52.0704 38.715734 71.483734 15.837867 18.9184 34.500267 33.169067 55.970133 42.752s44.2112 14.370133 68.232533 14.370133c21.973333 0 42.2912-2.679467 60.9536-8.046933 18.653867-5.367467 35.268267-12.1344 49.834667-20.317867 14.045867-7.918933 26.1888-16.034133 36.420267-24.337067 10.2144-8.302933 18.269867-15.402667 24.149333-21.282133h5.751467v90.4704c-12.526933 5.879467-24.3456 11.502933-35.456 16.8704s-24.6016 10.615467-40.439467 15.7184c-16.6144 5.367467-32.008533 9.4464-46.190933 12.270933s-32.6912 4.189867-55.432534 4.189867z" fill="#0B5AF7"></path>
</svg>